<?xml version="1.0" encoding="UTF-8"?>
<svg width="295px" height="56px" viewBox="0 0 295 56" version="1.1" xmlns="http://www.w3.org/2000/svg" xmlns:xlink="http://www.w3.org/1999/xlink">
    <!-- Generator: Sketch 46.2 (44496) - http://www.bohemiancoding.com/sketch -->
    <title>Group</title>
    <desc>Created with Sketch.</desc>
    <defs></defs>
    <g id="Logo" stroke="none" stroke-width="1" fill="none" fill-rule="evenodd">
        <g id="Artboard" transform="translate(-942.000000, -1763.000000)">
            <g id="Group" transform="translate(942.000000, 1763.000000)">
                <text id="CanIAgree?" font-family="ArialRoundedMTBold, Arial Rounded MT Bold" font-size="40.6018854" font-weight="normal" fill="#BD10E0">
                    <tspan x="63.3783588" y="42.8195754">CanIAgree?  </tspan>
                </text>
                <g id="badge-check" fill-rule="nonzero" fill="#4A90E2">
                    <path d="M49.75775,37.0130469 C51.3676406,40.5598594 50.7156562,44.88225 47.7989531,47.7989531 C44.8924219,50.7054844 40.5769219,51.3754062 37.0130469,49.75775 C35.6436719,53.4045312 32.1251875,56 28,56 C23.8748125,56 20.3563281,53.4045312 18.9869531,49.75775 C15.4263594,51.373875 11.1100937,50.708 8.20104687,47.7989531 C5.28434375,44.88225 4.63246875,40.5598594 6.24225,37.0130469 C2.59546875,35.6436719 0,32.1251875 0,28 C0,23.8748125 2.59546875,20.3563281 6.24225,18.9869531 C4.63235937,15.4401406 5.28434375,11.11775 8.20104687,8.20104687 C11.1178594,5.28434375 15.44025,4.63246875 18.9869531,6.24225 C20.3563281,2.59546875 23.8748125,0 28,0 C32.1251875,0 35.6436719,2.59546875 37.0130469,6.24225 C40.5598594,4.63235937 44.8821406,5.28423437 47.7989531,8.20104687 C50.7156562,11.11775 51.3675312,15.4401406 49.75775,18.9869531 C53.4045312,20.3563281 56,23.8748125 56,28 C56,32.1251875 53.4045312,35.6436719 49.75775,37.0130469 Z M23.9874688,41.7747969 L44.1124687,21.6497969 C44.7958437,20.9664219 44.7958437,19.8583438 44.1124687,19.1749688 L41.6376406,16.7001406 C40.9542656,16.0167656 39.8461875,16.0166563 39.1627031,16.7001406 L22.75,33.1127344 L15.0872969,25.4500313 C14.4039219,24.7666563 13.2958438,24.7666563 12.6123594,25.4500313 L10.1375313,27.9248594 C9.45415625,28.6082344 9.45415625,29.7163125 10.1375313,30.3996875 L21.5125313,41.7746875 C22.1960156,42.4582813 23.3040938,42.4582813 23.9874688,41.7747969 Z" id="Shape"></path>
                </g>
            </g>
        </g>
    </g>
</svg>