<svg xmlns="http://www.w3.org/2000/svg" width="833" height="150">
  <g fill="none" fill-rule="evenodd">
    <text fill="#C44ADD" font-family="ArialRoundedMTBold, Arial Rounded MT Bold" font-size="108.75505">
      <tspan x="169.76346" y="115.90958">CanIAgree?</tspan>
    </text>
    <path fill="#4A90E2" fill-rule="nonzero" d="M133.2797 99.1421c4.3122 9.50038 2.5658 21.0782-5.2468 28.8908-7.78534 7.78536-19.34472 9.5798-28.8908 5.2468C95.4741 143.04784 86.0496 150 75 150s-20.47412-6.95215-24.1421-16.7203c-9.5373 4.3289-21.09872 2.5453-28.8908-5.2468-7.8126-7.8126-9.5587-19.39042-5.2468-28.8908C6.95216 95.4741 0 86.0496 0 75s6.95215-20.47412 16.7203-24.1421c-4.3122-9.50038-2.5658-21.0782 5.2468-28.8908 7.81288-7.8126 19.3907-9.5587 28.8908-5.2468C54.5259 6.95216 63.9504 0 75 0s20.47412 6.95215 24.1421 16.7203c9.50038-4.3122 21.07792-2.5661 28.8908 5.2468 7.8126 7.8126 9.5587 19.39042 5.2468 28.8908C143.04784 54.5259 150 63.9504 150 75s-6.95215 20.47412-16.7203 24.1421zm-69.02755 12.75468l53.90625-53.90625c1.83047-1.83047 1.83047-4.79854 0-6.629l-6.629-6.629c-1.83047-1.83048-4.79854-1.83077-6.6293 0l-43.9626 43.9623-20.5251-20.5251c-1.83047-1.83047-4.79853-1.83047-6.6293 0l-6.629 6.629c-1.83047 1.83047-1.83047 4.79854 0 6.629l30.46875 30.46875c1.83076 1.83106 4.79883 1.83106 6.6293.0003z"/>
  </g>
</svg>
